<?xml version="1.0" encoding="UTF-8" ?>
<!DOCTYPE svg PUBLIC "-//W3C//DTD SVG 1.1//EN" "http://www.w3.org/Graphics/SVG/1.1/DTD/svg11.dtd">
<svg width="1600pt" height="1600pt" viewBox="0 0 1600 1600" version="1.1" xmlns="http://www.w3.org/2000/svg">
<g id="#262729ff">
</g>
<g id="#e4bf80ff">
<path fill="#e4bf80" opacity="1.00" d=" M 458.18 279.20 C 490.29 273.99 523.14 274.49 555.33 278.71 C 563.02 279.78 570.65 281.21 578.26 282.72 C 590.32 285.11 601.97 289.16 613.41 293.62 C 623.72 297.56 633.51 302.68 643.38 307.59 C 663.15 317.49 681.42 330.33 697.61 345.38 C 710.24 356.81 721.62 369.58 731.72 383.28 C 740.77 394.70 748.27 407.27 754.66 420.34 C 761.82 435.66 769.28 450.97 773.65 467.38 C 780.60 491.71 783.56 517.17 782.45 542.45 C 782.19 545.61 781.97 548.87 780.79 551.86 C 779.26 553.32 777.01 552.19 775.25 551.89 C 760.23 547.05 746.37 539.40 732.09 532.83 C 725.02 529.49 718.52 525.13 711.82 521.14 C 708.67 519.11 704.85 516.92 704.12 512.89 C 702.86 506.65 702.64 500.23 700.95 494.07 C 697.51 481.24 692.99 468.67 687.25 456.67 C 678.46 438.52 665.72 422.64 652.07 407.93 C 646.07 401.57 639.52 395.77 632.82 390.19 C 621.70 380.97 609.41 373.32 596.99 366.01 C 576.10 353.20 552.28 346.00 528.30 341.69 C 484.91 333.61 439.67 340.53 399.04 357.05 C 387.71 361.97 376.75 367.78 366.24 374.28 C 354.97 381.79 343.46 389.20 333.85 398.83 C 331.29 401.39 328.75 403.96 326.14 406.46 C 337.95 415.57 350.57 423.58 362.93 431.93 C 369.23 425.54 375.44 418.92 382.97 413.94 C 395.59 405.56 409.56 399.29 424.09 395.05 C 436.21 391.49 448.92 390.33 461.51 390.44 C 465.91 390.61 470.79 390.70 474.33 393.69 C 478.16 396.85 481.19 400.83 484.62 404.40 C 490.00 410.03 494.96 416.05 500.14 421.87 C 505.85 428.15 511.69 434.31 517.49 440.51 C 523.94 447.43 529.89 454.79 535.95 462.05 C 540.09 466.88 544.27 471.87 549.77 475.21 C 554.54 478.09 559.84 479.92 564.98 482.04 C 586.88 490.67 608.34 500.38 630.43 508.52 C 644.16 513.52 657.78 518.85 671.08 524.91 C 676.43 527.35 681.84 529.66 687.37 531.68 C 707.37 539.07 727.02 547.34 746.83 555.21 C 750.41 556.66 753.85 558.43 757.26 560.23 C 755.49 565.27 753.06 570.05 750.03 574.45 C 746.09 572.97 742.17 571.42 738.32 569.75 C 730.34 566.24 722.05 563.51 714.14 559.86 C 706.05 556.14 697.78 552.85 689.58 549.40 C 670.49 541.20 650.91 534.24 631.76 526.22 C 608.57 515.61 584.25 507.80 560.57 498.44 C 551.53 494.61 542.02 491.08 534.72 484.28 C 525.97 475.94 519.30 465.75 510.95 457.04 C 505.90 451.76 501.06 446.27 495.95 441.04 C 489.83 434.82 483.84 428.43 478.52 421.50 C 474.27 416.48 470.46 409.51 463.25 408.69 C 443.65 406.80 423.25 409.50 405.60 418.57 C 394.12 424.55 383.60 432.32 374.17 441.18 C 377.44 444.16 380.88 446.97 384.51 449.52 C 390.64 453.83 396.48 458.54 402.22 463.36 C 399.78 467.80 396.68 471.84 393.10 475.41 C 387.55 471.49 382.10 467.44 376.83 463.16 C 373.33 460.28 369.45 457.92 365.43 455.86 C 362.46 461.87 360.10 468.19 358.78 474.78 C 356.35 486.62 354.10 498.54 353.40 510.62 C 344.04 510.89 334.67 511.02 325.30 510.71 C 324.57 503.05 324.49 495.35 324.80 487.66 C 329.37 487.49 333.94 487.53 338.51 487.59 C 340.62 482.16 342.44 476.62 343.99 471.01 C 346.34 462.45 349.28 454.07 352.79 445.92 C 338.51 437.21 325.53 426.59 311.54 417.45 C 298.47 408.46 285.24 399.73 271.93 391.11 C 269.55 389.51 267.08 387.94 265.22 385.73 C 266.46 380.30 270.84 376.40 274.54 372.54 C 279.28 367.94 284.09 363.42 288.85 358.84 C 295.86 352.09 303.67 346.27 311.44 340.44 C 323.89 331.32 336.59 322.42 350.30 315.26 C 367.08 306.52 384.30 298.54 402.13 292.15 C 420.33 286.02 439.20 282.01 458.18 279.20 M 451.86 297.82 C 439.12 300.14 426.59 303.44 414.20 307.18 C 386.90 315.16 360.77 327.23 337.16 343.11 C 319.94 354.47 303.83 367.47 288.81 381.60 C 294.54 385.81 300.47 389.72 306.41 393.63 C 308.19 394.74 309.99 395.91 312.03 396.52 C 314.83 394.94 316.96 392.45 319.20 390.20 C 324.86 384.16 330.88 378.44 337.56 373.54 C 344.88 368.16 351.95 362.40 359.78 357.76 C 385.08 342.70 412.90 332.04 441.62 325.69 C 456.24 322.78 471.13 321.32 486.01 320.73 C 512.51 319.80 539.12 324.12 564.13 332.86 C 584.66 339.46 604.64 348.26 622.40 360.60 C 629.78 365.84 637.09 371.20 644.20 376.81 C 651.26 382.36 657.48 388.85 663.73 395.27 C 668.63 400.38 673.57 405.47 677.96 411.04 C 684.19 418.97 689.66 427.46 694.88 436.09 C 699.57 443.92 704.26 451.79 707.82 460.22 C 711.95 469.97 715.09 480.13 717.47 490.45 C 718.67 495.47 718.95 500.69 720.39 505.66 C 721.27 508.60 724.51 509.69 726.94 511.07 C 739.85 517.14 751.79 525.07 764.73 531.09 C 765.18 515.81 763.27 500.58 760.36 485.61 C 756.98 471.10 752.44 456.87 746.97 443.02 C 739.72 425.62 729.59 409.60 718.72 394.27 C 712.97 386.46 706.76 378.96 699.82 372.18 C 695.43 367.90 691.13 363.53 686.76 359.23 C 677.04 349.74 665.77 342.07 654.54 334.50 C 644.46 327.98 634.15 321.71 623.16 316.83 C 600.13 307.08 575.98 299.91 551.31 295.71 C 541.28 294.14 531.14 293.43 521.01 292.80 C 497.88 292.12 474.57 293.15 451.86 297.82 Z" />
<path fill="#e4bf80" opacity="1.00" d=" M 1038.75 280.83 C 1056.60 277.30 1074.78 275.58 1092.97 275.26 C 1098.31 275.09 1103.65 274.67 1109.00 274.97 C 1116.33 275.40 1123.68 275.19 1131.00 275.91 C 1149.12 277.66 1167.15 280.62 1184.81 285.11 C 1207.91 290.73 1229.83 300.32 1251.01 310.97 C 1270.22 320.18 1288.03 332.11 1304.79 345.21 C 1316.77 354.80 1328.92 364.35 1339.13 375.89 C 1341.49 378.60 1343.39 381.67 1345.25 384.74 C 1336.32 392.55 1326.14 398.75 1316.29 405.31 C 1307.37 411.41 1298.32 417.32 1289.40 423.40 C 1281.10 429.02 1273.45 435.53 1265.15 441.13 C 1263.23 442.50 1261.21 443.80 1259.68 445.60 C 1259.45 448.92 1260.80 452.09 1261.66 455.24 C 1264.03 462.57 1265.52 470.14 1267.42 477.60 C 1268.20 480.26 1268.87 483.13 1270.75 485.28 C 1275.01 487.30 1280.14 486.47 1284.30 488.83 C 1286.87 495.88 1285.65 503.57 1285.10 510.86 C 1275.41 511.18 1265.71 511.32 1256.03 511.08 C 1254.22 492.40 1251.71 473.40 1244.02 456.10 C 1234.59 461.64 1226.72 469.58 1216.67 474.11 C 1213.90 469.94 1211.26 465.70 1208.81 461.35 C 1217.40 455.15 1225.96 448.90 1234.65 442.83 C 1227.38 433.19 1217.46 426.00 1207.34 419.62 C 1193.31 410.73 1176.46 407.14 1160.00 407.32 C 1155.38 407.39 1150.71 407.25 1146.18 408.24 C 1143.20 408.76 1141.22 411.22 1139.36 413.36 C 1132.55 421.83 1124.15 428.83 1116.99 436.98 C 1109.90 444.89 1102.33 452.36 1095.50 460.50 C 1090.15 466.83 1084.82 473.16 1079.55 479.56 C 1076.98 482.62 1074.45 485.78 1071.29 488.27 C 1068.19 490.73 1064.55 492.37 1060.96 493.94 C 1047.55 499.77 1033.80 504.77 1020.23 510.20 C 1008.59 514.79 996.36 517.75 984.91 522.83 C 972.01 528.42 959.00 533.74 945.94 538.92 C 938.08 542.03 930.41 545.61 922.45 548.44 C 910.59 552.65 899.10 557.76 887.44 562.45 C 880.81 565.13 874.04 567.50 867.56 570.53 C 864.29 571.92 860.99 573.66 857.37 573.70 C 853.93 570.57 852.11 565.86 851.83 561.28 C 854.49 558.92 857.79 557.46 860.98 555.97 C 876.67 549.01 892.66 542.76 908.71 536.72 C 927.35 529.67 945.41 521.20 964.00 514.03 C 983.14 506.43 1002.65 499.76 1021.56 491.57 C 1032.19 487.12 1042.81 482.66 1053.61 478.63 C 1057.03 477.29 1060.55 475.85 1063.28 473.29 C 1066.05 470.69 1068.24 467.56 1070.57 464.57 C 1079.43 452.90 1089.46 442.17 1099.83 431.85 C 1107.38 423.72 1114.85 415.52 1122.42 407.42 C 1126.43 403.10 1129.96 398.31 1134.41 394.42 C 1138.63 390.76 1144.55 390.74 1149.82 390.48 C 1163.19 390.27 1176.80 391.15 1189.57 395.40 C 1207.16 401.18 1223.99 409.80 1238.06 421.95 C 1241.45 424.83 1244.30 428.41 1248.18 430.70 C 1252.50 429.35 1255.83 426.06 1259.44 423.45 C 1266.66 417.69 1274.66 412.99 1281.77 407.08 C 1270.68 392.65 1255.26 382.53 1240.07 372.94 C 1228.22 366.20 1216.30 359.45 1203.56 354.50 C 1192.40 349.85 1180.60 347.07 1168.91 344.13 C 1161.45 342.38 1153.96 340.61 1146.35 339.66 C 1132.98 338.02 1119.46 338.20 1106.03 338.67 C 1079.24 340.33 1052.74 346.59 1028.02 357.03 C 1013.85 363.54 1000.58 371.88 987.88 380.90 C 972.41 391.81 958.74 405.12 946.74 419.73 C 934.72 435.29 923.03 451.55 916.16 470.14 C 911.80 482.27 908.55 494.82 906.60 507.56 C 906.01 510.45 905.60 513.48 904.09 516.06 C 902.43 518.22 899.84 519.31 897.54 520.62 C 890.58 524.14 884.13 528.55 877.26 532.22 C 864.14 539.08 850.87 545.68 837.14 551.22 C 834.73 552.13 832.16 552.91 829.57 552.54 C 826.67 548.31 827.02 542.88 826.66 538.00 C 826.21 495.24 836.96 452.57 856.66 414.69 C 874.11 384.16 895.75 355.32 924.07 334.06 C 935.68 324.19 948.65 316.00 962.28 309.22 C 970.65 304.85 979.13 300.71 987.67 296.70 C 1003.90 289.17 1021.30 284.56 1038.75 280.83 M 1055.12 296.07 C 1036.08 299.55 1017.32 304.58 999.12 311.13 C 982.52 317.57 966.37 325.48 951.89 335.89 C 939.40 344.52 926.80 353.25 916.21 364.22 C 909.10 371.45 902.21 378.90 895.60 386.61 C 887.87 395.86 881.83 406.35 875.64 416.65 C 872.21 422.37 869.20 428.32 866.26 434.29 C 857.76 451.10 852.73 469.39 848.81 487.74 C 846.17 501.76 843.98 515.99 844.33 530.31 C 849.65 528.24 854.65 525.46 859.54 522.52 C 866.84 518.43 874.18 514.40 881.74 510.80 C 883.87 509.68 886.18 508.71 887.89 506.95 C 889.22 504.45 889.47 501.56 890.02 498.82 C 892.49 482.33 899.12 466.87 905.74 451.69 C 913.11 436.46 921.80 421.74 932.90 408.91 C 939.86 400.89 946.51 392.55 954.31 385.31 C 962.58 377.47 971.84 370.79 980.92 363.93 C 988.67 358.08 997.08 353.17 1005.64 348.59 C 1019.13 341.28 1033.65 336.17 1048.07 331.01 C 1064.42 325.12 1081.71 322.39 1098.97 320.91 C 1117.89 319.77 1136.94 320.39 1155.68 323.28 C 1169.67 325.05 1183.37 328.60 1196.62 333.42 C 1230.38 344.73 1261.25 363.67 1288.10 386.90 C 1291.52 389.76 1294.61 393.43 1298.98 394.86 C 1301.25 394.06 1303.22 392.62 1305.21 391.27 C 1309.65 388.11 1314.07 384.91 1318.41 381.60 C 1316.36 378.69 1314.24 375.78 1311.54 373.44 C 1299.96 363.58 1288.29 353.74 1275.47 345.51 C 1263.99 338.20 1252.46 330.90 1240.30 324.74 C 1213.80 312.12 1185.57 303.44 1156.93 297.17 C 1143.46 294.27 1129.69 293.17 1115.94 292.60 C 1095.63 292.04 1075.19 292.72 1055.12 296.07 Z" />
<path fill="#e4bf80" opacity="1.00" d=" M 466.09 417.88 C 467.66 419.37 469.41 420.82 470.20 422.91 C 471.90 427.03 473.38 431.23 475.04 435.37 C 472.65 435.05 470.18 434.98 467.91 434.12 C 466.36 433.24 465.64 431.42 465.39 429.75 C 464.77 425.79 465.35 421.78 466.09 417.88 Z" />
<path fill="#e4bf80" opacity="1.00" d=" M 1139.66 421.63 C 1140.60 419.20 1143.45 419.19 1145.64 418.91 C 1146.97 424.16 1147.48 429.61 1146.94 435.01 C 1144.17 435.00 1141.31 435.28 1138.68 434.32 C 1136.75 430.29 1138.07 425.55 1139.66 421.63 Z" />
<path fill="#e4bf80" opacity="1.00" d=" M 1163.00 421.11 C 1166.27 419.83 1169.81 421.22 1173.12 421.71 C 1184.26 423.78 1194.68 428.65 1204.07 434.90 C 1207.37 437.17 1211.01 439.22 1213.49 442.46 C 1214.17 444.65 1211.98 446.27 1210.58 447.56 C 1207.80 449.64 1204.65 451.77 1201.08 451.92 C 1197.42 451.13 1194.56 448.51 1191.53 446.50 C 1182.89 440.30 1172.85 436.11 1162.30 434.64 C 1162.24 430.13 1161.79 425.51 1163.00 421.11 Z" />
<path fill="#e4bf80" opacity="1.00" d=" M 407.47 434.46 C 418.72 428.49 430.43 422.73 443.20 421.03 C 445.46 420.90 448.21 420.22 450.13 421.76 C 451.70 425.72 451.55 430.09 451.77 434.29 C 439.90 435.99 428.49 440.24 418.07 446.12 C 414.14 448.25 410.84 451.43 406.77 453.30 C 403.91 452.51 401.60 450.50 399.33 448.69 C 397.27 446.88 394.90 445.06 394.15 442.30 C 398.08 438.91 402.95 436.92 407.47 434.46 Z" />
<path fill="#e4bf80" opacity="1.00" d=" M 452.40 449.52 C 460.15 448.60 468.10 448.61 475.76 450.26 C 482.42 451.68 488.42 455.17 493.83 459.19 C 501.62 464.97 508.92 471.76 513.64 480.34 C 527.61 503.91 522.59 536.91 502.22 555.24 C 493.56 563.18 482.67 568.92 471.09 571.07 C 461.31 572.31 451.18 572.01 441.69 569.20 C 429.24 565.23 417.95 557.27 410.53 546.45 C 405.55 539.27 402.15 531.02 400.56 522.43 C 398.73 512.80 398.51 502.67 401.26 493.19 C 403.39 485.78 407.28 479.01 411.76 472.78 C 420.97 459.48 436.49 451.32 452.40 449.52 M 450.34 466.33 C 443.78 467.45 437.63 470.40 432.26 474.28 C 423.87 480.48 418.81 490.24 416.15 500.14 C 411.83 516.05 417.60 534.21 430.38 544.64 C 436.24 549.26 442.96 552.95 450.23 554.77 C 464.24 558.01 479.30 553.27 490.03 543.99 C 496.39 538.24 501.10 530.63 503.42 522.37 C 505.64 513.61 505.45 504.14 502.37 495.61 C 499.16 486.50 493.66 477.82 485.28 472.69 C 475.08 465.92 462.24 464.29 450.34 466.33 Z" />
<path fill="#e4bf80" opacity="1.00" d=" M 1138.40 449.49 C 1147.00 448.06 1155.87 448.24 1164.48 449.60 C 1174.15 451.27 1182.65 456.74 1189.98 463.03 C 1197.88 469.75 1204.58 478.26 1207.73 488.25 C 1210.71 497.92 1211.22 508.20 1210.32 518.24 C 1209.47 526.08 1207.92 534.06 1204.01 541.01 C 1200.33 547.71 1194.84 553.17 1189.02 558.03 C 1182.22 563.91 1174.06 568.21 1165.33 570.36 C 1158.09 572.16 1150.55 571.91 1143.16 571.60 C 1132.68 571.07 1122.77 566.69 1114.30 560.69 C 1106.89 555.45 1101.07 548.20 1096.73 540.28 C 1092.82 533.04 1089.86 525.12 1089.34 516.85 C 1088.87 509.03 1089.08 501.01 1091.49 493.50 C 1095.69 480.27 1104.25 468.67 1114.99 459.98 C 1121.75 454.60 1129.93 451.10 1138.40 449.49 M 1143.37 465.44 C 1133.40 466.80 1123.84 471.57 1117.14 479.13 C 1108.16 489.34 1104.27 503.59 1105.96 517.01 C 1107.34 528.68 1113.46 540.06 1123.38 546.63 C 1136.05 555.59 1153.36 557.88 1167.72 551.74 C 1183.76 544.94 1195.48 528.49 1195.75 510.94 C 1196.25 497.66 1189.94 484.65 1180.05 475.96 C 1170.13 467.31 1156.36 463.44 1143.37 465.44 Z" />
<path fill="#e4bf80" opacity="1.00" d=" M 373.10 475.74 C 378.05 478.29 383.48 480.49 387.29 484.70 C 387.71 487.30 386.93 489.89 386.49 492.44 C 384.16 502.84 383.67 513.63 384.71 524.23 C 385.54 532.71 388.64 540.70 391.19 548.77 C 385.30 548.93 379.10 550.61 373.37 548.71 C 371.55 544.98 371.00 540.80 370.20 536.77 C 366.37 516.54 368.25 495.62 373.10 475.74 Z" />
<path fill="#e4bf80" opacity="1.00" d=" M 1222.11 483.34 C 1226.19 480.58 1230.26 477.81 1234.43 475.18 C 1235.67 477.80 1236.95 480.42 1237.67 483.25 C 1241.61 500.16 1241.36 517.79 1238.97 534.91 C 1238.34 539.10 1238.04 543.45 1236.34 547.39 C 1231.05 549.43 1225.21 548.29 1219.72 548.08 C 1221.52 539.85 1224.60 531.90 1225.41 523.47 C 1226.02 516.99 1226.45 510.46 1226.12 503.96 C 1225.76 496.92 1223.77 490.14 1222.11 483.34 Z" />
<path fill="#e4bf80" opacity="1.00" d=" M 452.43 477.46 C 458.20 476.18 464.26 476.60 469.93 478.15 C 478.22 480.40 484.75 486.98 488.52 494.51 C 491.98 501.93 492.09 510.56 490.36 518.45 C 487.85 529.61 478.55 538.85 467.40 541.39 C 460.96 542.84 454.12 542.95 447.72 541.24 C 437.62 538.32 430.36 528.97 428.05 518.96 C 426.29 510.41 427.12 501.12 431.48 493.45 C 435.70 485.41 443.59 479.46 452.43 477.46 M 454.43 496.42 C 448.47 498.45 444.12 504.66 444.55 510.99 C 444.75 515.42 446.68 520.08 450.59 522.45 C 456.08 525.69 463.68 525.95 468.78 521.80 C 473.95 517.76 476.76 509.86 473.03 503.97 C 469.58 497.46 461.45 494.08 454.43 496.42 Z" />
<path fill="#e4bf80" opacity="1.00" d=" M 1143.48 477.56 C 1149.93 475.92 1156.87 476.56 1163.06 478.95 C 1172.63 482.93 1179.82 491.94 1182.02 502.02 C 1184.13 512.77 1181.41 524.72 1173.75 532.75 C 1168.86 538.03 1161.86 541.09 1154.73 541.62 C 1148.96 542.05 1142.96 541.78 1137.60 539.42 C 1129.01 535.79 1122.75 527.92 1119.71 519.26 C 1115.42 506.42 1120.62 491.39 1131.40 483.40 C 1135.01 480.73 1139.10 478.65 1143.48 477.56 M 1145.41 496.37 C 1141.54 497.44 1138.41 500.63 1137.51 504.55 C 1136.14 509.85 1136.49 516.36 1140.65 520.37 C 1144.05 523.74 1149.20 524.33 1153.74 523.69 C 1159.03 523.05 1163.52 518.84 1164.91 513.76 C 1166.18 509.34 1165.35 504.23 1162.16 500.81 C 1158.12 496.13 1151.23 494.50 1145.41 496.37 Z" />
<path fill="#e4bf80" opacity="1.00" d=" M 325.75 526.29 C 335.30 526.48 344.86 526.23 354.41 526.47 C 354.70 533.75 355.40 541.02 356.34 548.26 C 346.88 548.99 337.39 548.69 327.92 548.89 C 326.50 541.44 325.69 533.88 325.75 526.29 Z" />
<path fill="#e4bf80" opacity="1.00" d=" M 1255.09 525.85 C 1264.95 525.49 1274.85 525.28 1284.70 526.23 C 1284.52 531.14 1284.43 536.05 1283.94 540.94 C 1283.67 543.40 1283.37 545.95 1282.14 548.15 C 1279.44 548.68 1276.67 548.53 1273.94 548.54 C 1267.02 548.40 1260.10 548.62 1253.20 548.06 C 1253.50 540.63 1254.44 533.25 1255.09 525.85 Z" />
<path fill="#e4bf80" opacity="1.00" d=" M 608.08 526.72 C 612.12 527.83 616.06 529.26 619.86 531.01 C 619.70 542.92 619.71 554.83 619.50 566.75 C 619.56 570.65 619.28 574.69 620.56 578.45 C 622.54 581.79 626.30 583.47 629.34 585.70 C 643.69 595.76 658.94 604.49 672.90 615.10 C 675.26 617.02 677.85 618.89 679.36 621.61 C 680.31 625.10 677.91 628.49 676.82 631.72 C 671.82 629.08 667.59 625.33 663.29 621.72 C 651.65 612.82 638.92 605.49 626.97 597.04 C 621.93 593.44 616.36 590.50 611.91 586.13 C 607.84 582.25 608.41 576.17 608.03 571.05 C 607.15 556.28 607.54 541.49 608.08 526.72 Z" />
<path fill="#e4bf80" opacity="1.00" d=" M 989.27 532.07 C 992.85 529.46 997.03 527.79 1001.51 527.68 C 1001.76 542.13 1001.52 556.59 1001.67 571.04 C 1001.62 574.96 1001.86 578.95 1000.97 582.80 C 1000.36 585.31 997.83 586.56 995.93 588.01 C 987.28 593.59 979.03 599.77 970.35 605.32 C 960.64 611.46 950.89 617.65 942.27 625.28 C 939.81 627.38 937.24 629.34 934.62 631.23 C 932.69 627.61 930.79 623.98 929.02 620.29 C 945.90 607.14 964.06 595.81 981.58 583.57 C 984.20 581.60 987.18 579.73 988.72 576.73 C 989.89 573.65 989.61 570.28 989.68 567.05 C 989.48 555.39 989.64 543.72 989.27 532.07 Z" />
<path fill="#e4bf80" opacity="1.00" d=" M 641.18 537.03 C 643.62 539.65 645.64 542.61 647.47 545.69 C 649.50 549.26 653.16 551.39 656.66 553.31 C 667.64 559.14 678.93 564.37 690.09 569.85 C 697.85 573.63 705.78 577.06 713.89 580.04 C 717.18 581.33 720.62 582.49 723.47 584.67 C 723.79 586.83 722.76 588.87 721.85 590.76 C 719.70 594.97 717.12 598.95 714.73 603.03 C 708.35 599.83 702.00 596.58 695.62 593.39 C 685.66 588.39 675.93 582.91 665.84 578.16 C 659.80 575.30 653.89 572.17 647.99 569.05 C 645.72 567.74 643.23 566.55 641.61 564.43 C 640.87 562.38 640.91 560.16 640.78 558.02 C 640.57 551.03 639.80 543.96 641.18 537.03 Z" />
<path fill="#e4bf80" opacity="1.00" d=" M 959.68 545.58 C 961.46 543.35 964.09 542.11 966.50 540.70 C 968.40 548.95 967.37 557.43 966.91 565.78 C 962.11 568.35 957.33 570.95 952.54 573.54 C 940.42 580.24 927.58 585.55 915.70 592.71 C 909.43 596.00 903.47 599.96 896.93 602.68 C 890.92 598.51 889.00 590.84 886.75 584.28 C 894.26 580.80 902.01 577.89 909.55 574.49 C 923.83 567.91 938.07 561.22 952.08 554.07 C 955.66 552.33 957.28 548.51 959.68 545.58 Z" />
<path fill="#e4bf80" opacity="1.00" d=" M 329.59 565.15 C 338.06 564.62 346.53 565.23 355.00 565.17 C 369.67 565.20 384.33 565.34 399.00 565.32 C 403.55 565.34 408.11 565.06 412.64 565.54 C 416.13 565.88 419.54 567.49 421.86 570.15 C 423.43 572.06 424.43 574.34 425.55 576.52 C 416.69 576.82 407.83 576.51 398.98 576.45 C 376.27 576.13 353.56 576.58 330.86 575.67 C 330.45 572.16 330.02 568.65 329.59 565.15 Z" />
<path fill="#e4bf80" opacity="1.00" d=" M 1194.94 566.03 C 1199.18 564.86 1203.65 565.34 1208.01 565.27 C 1218.01 565.47 1227.99 564.67 1238.00 564.75 C 1252.14 564.79 1266.30 564.33 1280.44 564.80 C 1280.26 568.47 1280.02 572.14 1279.78 575.82 C 1270.53 576.54 1261.25 576.18 1252.00 576.29 C 1235.64 576.34 1219.28 576.34 1202.93 576.43 C 1197.42 576.69 1191.88 576.53 1186.48 575.37 C 1188.62 571.80 1190.68 567.44 1194.94 566.03 Z" />
<path fill="#e4bf80" opacity="1.00" d=" M 732.83 590.90 C 732.43 587.54 733.79 584.09 736.23 581.78 C 739.40 581.93 742.55 583.00 745.09 584.92 C 747.68 586.93 748.81 590.15 749.91 593.12 C 755.55 609.88 761.41 626.58 768.00 643.00 C 770.08 648.14 771.77 653.43 773.14 658.81 C 762.50 665.84 750.38 670.47 740.27 678.31 C 741.83 682.91 745.27 686.61 746.73 691.27 C 748.43 696.65 749.00 702.62 747.01 708.01 C 745.11 713.55 741.13 717.99 737.09 722.09 C 735.19 724.22 732.90 726.30 732.19 729.16 C 732.91 735.09 738.67 739.04 739.38 745.02 C 739.57 748.45 738.15 751.69 736.79 754.76 C 734.97 758.63 733.14 762.51 731.48 766.46 C 729.71 770.47 727.97 774.66 724.84 777.83 C 721.70 780.96 717.53 782.71 713.56 784.53 C 701.13 789.96 688.95 795.92 676.74 801.79 C 674.61 802.71 672.43 803.75 670.08 803.80 C 667.99 803.67 666.13 802.59 664.32 801.66 C 654.01 795.88 644.50 788.82 634.62 782.36 C 622.60 774.66 610.54 767.04 598.32 759.65 C 593.19 756.54 588.30 753.04 583.35 749.65 C 577.00 745.28 570.43 741.24 564.02 736.98 C 553.38 729.93 542.84 722.73 532.01 715.97 C 522.07 709.49 511.63 703.83 501.78 697.23 C 485.76 687.00 470.30 675.93 454.21 665.80 C 441.75 658.31 428.69 651.71 414.90 647.05 C 399.85 641.48 384.45 636.97 369.29 631.74 C 357.16 627.31 344.70 623.84 332.69 619.08 C 332.59 613.37 332.74 607.66 332.72 601.95 C 332.70 595.61 331.77 589.33 331.19 583.03 C 349.45 582.13 367.73 583.21 386.01 583.17 C 405.33 582.80 424.67 582.50 444.00 582.77 C 448.42 583.07 453.20 582.61 457.26 584.73 C 457.99 588.09 457.86 591.56 457.87 594.99 C 457.58 609.99 457.78 625.00 457.62 640.01 C 457.72 643.09 457.50 646.35 458.72 649.25 C 459.98 651.01 461.87 652.17 463.63 653.39 C 483.33 666.00 503.15 678.44 522.67 691.33 C 538.76 701.54 555.07 711.42 570.79 722.21 C 587.70 733.14 604.92 743.57 622.04 754.17 C 622.51 734.46 622.27 714.75 622.60 695.04 C 622.55 689.66 623.01 684.24 622.21 678.90 C 621.61 674.82 617.88 672.45 614.89 670.12 C 607.09 664.61 599.33 659.06 591.82 653.16 C 584.15 647.09 576.05 641.62 568.22 635.77 C 557.06 627.66 546.42 618.84 535.21 610.81 C 533.02 609.03 530.34 607.48 529.19 604.80 C 529.76 600.95 532.40 597.61 535.37 595.23 C 537.83 595.25 539.91 596.76 541.88 598.06 C 562.92 613.32 583.68 628.96 604.57 644.41 C 613.11 650.48 621.06 657.31 629.61 663.37 C 632.21 665.36 635.08 667.22 636.86 670.05 C 638.12 672.82 637.70 675.99 637.79 678.96 C 637.32 696.30 637.36 713.65 637.27 731.00 C 637.29 740.03 636.44 749.05 636.64 758.09 C 636.81 760.30 636.71 762.92 638.48 764.57 C 640.32 766.43 642.60 767.79 644.79 769.21 C 651.50 773.41 657.94 778.00 664.34 782.65 C 666.15 783.88 667.97 785.25 670.12 785.84 C 672.64 785.60 674.89 784.28 677.13 783.21 C 685.34 778.85 693.87 775.13 702.36 771.37 C 706.01 769.72 709.78 768.25 713.20 766.12 C 718.07 763.08 720.76 757.55 722.13 752.15 C 723.32 747.85 720.26 744.09 718.72 740.33 C 716.28 735.40 716.56 729.76 716.52 724.42 C 710.86 721.36 705.20 718.31 699.33 715.69 C 696.49 714.28 693.42 713.12 691.11 710.90 C 690.08 709.19 690.38 707.06 690.29 705.17 C 690.60 696.44 690.86 687.72 691.33 679.01 C 691.38 676.08 691.67 673.10 690.98 670.24 C 689.62 667.36 687.05 665.35 684.94 663.06 C 681.01 658.99 677.27 654.69 672.72 651.29 C 658.55 640.31 643.56 630.48 629.14 619.86 C 618.04 612.28 606.89 604.77 595.75 597.27 C 594.29 596.12 592.42 595.02 592.03 593.06 C 592.67 591.20 593.89 589.57 595.44 588.37 C 598.70 588.33 601.59 590.12 604.38 591.61 C 614.42 597.43 624.16 603.75 633.86 610.13 C 645.67 617.83 656.65 626.70 668.12 634.88 C 673.63 638.94 679.50 642.75 683.86 648.13 C 685.98 650.61 687.75 653.44 690.29 655.55 C 691.89 656.85 694.12 656.16 696.00 656.19 C 700.74 655.92 706.41 654.64 710.24 658.31 C 709.79 663.82 703.24 666.41 702.82 671.93 C 702.50 677.62 704.05 683.22 703.81 688.91 C 703.76 693.12 702.61 697.33 703.29 701.54 C 706.91 704.90 711.95 705.92 716.45 707.63 C 719.60 708.49 722.98 710.21 726.29 709.26 C 731.02 706.00 734.05 699.99 733.66 694.24 C 732.17 686.62 725.06 681.09 724.85 673.07 C 725.02 669.62 728.37 667.68 730.96 666.01 C 738.79 661.44 746.83 657.11 753.70 651.13 C 751.26 644.73 749.65 638.07 747.40 631.61 C 743.86 621.59 740.25 611.58 736.21 601.74 C 734.82 598.22 733.30 594.68 732.83 590.90 M 338.47 596.51 C 339.89 599.87 341.08 603.59 343.96 606.03 C 347.16 608.68 351.28 609.73 355.18 610.89 C 366.94 614.19 378.71 617.51 390.15 621.86 C 399.01 625.23 408.05 628.08 417.08 631.00 C 425.40 633.69 433.41 637.19 441.61 640.23 C 441.51 625.73 442.94 611.24 442.32 596.74 C 425.88 596.42 409.45 595.48 393.00 595.64 C 374.83 595.70 356.59 594.68 338.47 596.51 Z" />
<path fill="#e4bf80" opacity="1.00" d=" M 1151.30 583.83 C 1189.16 581.72 1227.10 583.24 1265.00 582.74 C 1269.00 582.77 1273.13 582.74 1276.98 584.06 C 1277.93 585.81 1277.68 587.91 1277.66 589.84 C 1277.30 595.21 1276.12 600.52 1276.27 605.94 C 1276.13 610.03 1276.74 614.31 1275.31 618.24 C 1273.47 619.97 1271.06 620.88 1268.79 621.86 C 1257.70 626.20 1246.40 630.02 1235.25 634.20 C 1228.79 636.49 1222.21 638.42 1215.78 640.80 C 1204.98 644.82 1193.71 647.51 1183.12 652.11 C 1169.04 658.06 1156.08 666.23 1142.93 673.94 C 1125.77 684.24 1109.80 696.35 1092.61 706.60 C 1081.91 713.13 1071.77 720.49 1061.23 727.27 C 1044.07 738.41 1027.02 749.75 1009.81 760.83 C 998.52 768.26 986.93 775.24 975.57 782.56 C 966.98 788.29 958.54 794.24 949.90 799.90 C 946.47 801.99 942.58 804.37 938.39 803.49 C 934.12 802.58 930.28 800.42 926.35 798.63 C 915.91 793.58 905.13 789.30 894.62 784.42 C 889.44 781.98 883.96 779.14 881.06 773.95 C 878.07 768.60 876.28 762.68 873.96 757.03 C 872.57 753.00 870.65 748.74 871.47 744.40 C 873.37 739.80 877.74 736.61 879.10 731.73 C 879.86 729.51 878.57 727.36 877.37 725.59 C 874.62 721.71 871.13 718.38 868.67 714.29 C 865.10 708.72 863.40 701.88 864.47 695.32 C 865.38 689.71 869.94 685.69 871.58 680.38 C 869.15 677.73 866.05 675.83 863.02 673.98 C 857.48 670.74 851.79 667.76 846.01 664.99 C 843.24 663.55 840.24 662.25 838.12 659.89 C 836.78 658.55 837.76 656.61 838.03 655.06 C 841.28 643.81 845.40 632.84 848.67 621.61 C 851.69 611.33 855.78 601.42 859.15 591.27 C 860.11 589.03 860.76 586.05 863.30 585.09 C 867.47 583.42 871.95 584.87 876.06 585.98 C 875.51 590.23 874.81 594.48 873.56 598.59 C 868.03 616.51 860.37 633.70 854.94 651.66 C 863.06 656.69 871.31 661.50 879.32 666.70 C 881.54 668.22 883.86 669.83 885.23 672.23 C 885.17 676.52 882.86 680.33 881.16 684.14 C 878.39 689.83 876.47 696.44 878.23 702.72 C 878.87 705.07 880.53 707.68 883.26 707.71 C 887.95 708.00 892.50 706.43 896.90 704.97 C 899.88 703.82 903.16 702.69 905.24 700.11 C 906.68 697.89 906.44 695.09 906.47 692.56 C 906.25 687.39 906.14 682.20 906.47 677.03 C 906.54 674.16 906.90 671.24 906.30 668.42 C 905.16 665.27 902.38 663.05 901.18 659.94 C 901.05 657.93 902.47 655.88 904.45 655.43 C 908.28 655.35 911.75 657.56 915.58 657.48 C 918.25 656.42 920.18 654.16 922.17 652.17 C 927.73 646.07 933.67 640.30 939.99 634.98 C 944.38 631.26 949.30 628.25 954.08 625.07 C 961.87 619.91 969.17 614.06 977.04 609.02 C 985.23 603.56 993.73 598.53 1001.55 592.52 C 1003.91 590.85 1006.21 588.84 1009.10 588.18 C 1012.06 587.45 1015.29 590.78 1013.88 593.66 C 1012.35 596.75 1009.36 598.71 1006.69 600.71 C 988.87 613.15 971.45 626.13 953.70 638.66 C 943.21 646.05 933.58 654.53 923.75 662.75 C 921.79 664.51 919.52 666.37 919.05 669.12 C 918.52 671.70 918.57 674.36 918.57 677.00 C 918.64 685.69 918.62 694.38 918.80 703.07 C 918.65 705.77 919.01 708.92 917.10 711.14 C 911.04 717.50 901.55 717.94 894.50 722.61 C 893.12 727.19 893.98 732.12 892.64 736.72 C 891.41 741.31 888.24 745.23 887.66 750.01 C 887.69 754.59 889.73 758.96 892.33 762.66 C 894.60 765.91 898.23 767.77 901.78 769.32 C 911.74 773.65 921.90 777.53 931.59 782.46 C 933.99 783.56 936.36 784.97 939.03 785.34 C 941.14 785.12 942.95 783.86 944.77 782.85 C 951.11 778.88 957.15 774.44 963.57 770.59 C 966.12 768.90 969.02 767.46 970.89 764.96 C 972.01 762.50 971.70 759.67 971.80 757.05 C 971.11 734.04 971.53 711.02 971.26 688.00 C 971.29 682.71 970.90 677.40 971.45 672.13 C 971.55 669.34 973.83 667.46 975.79 665.80 C 983.26 659.90 990.76 654.02 998.50 648.48 C 1007.74 641.72 1016.70 634.60 1026.12 628.09 C 1037.61 619.63 1048.75 610.69 1060.30 602.32 C 1064.28 599.53 1067.92 595.73 1072.86 594.77 C 1076.54 597.02 1078.70 601.49 1078.78 605.74 C 1077.50 608.08 1075.18 609.57 1073.10 611.12 C 1060.51 619.73 1048.75 629.48 1036.39 638.40 C 1028.90 643.91 1021.08 648.98 1013.93 654.94 C 1006.38 661.15 998.43 666.85 990.29 672.27 C 987.54 673.98 985.05 676.60 985.35 680.09 C 985.11 698.72 985.62 717.36 985.69 736.00 C 985.69 742.14 986.17 748.27 986.48 754.41 C 990.57 752.70 994.58 750.75 998.21 748.18 C 1007.29 741.81 1016.72 735.96 1026.16 730.14 C 1040.15 721.19 1053.81 711.76 1067.82 702.84 C 1076.15 697.49 1084.66 692.42 1092.84 686.84 C 1101.40 680.99 1110.24 675.55 1119.02 670.04 C 1128.51 664.34 1137.94 658.47 1146.68 651.65 C 1149.10 649.85 1150.96 647.19 1150.78 644.05 C 1151.25 623.98 1149.79 603.87 1151.30 583.83 M 1166.71 596.70 C 1166.48 606.46 1166.79 616.23 1166.68 626.00 C 1166.63 630.50 1166.86 634.99 1167.27 639.48 C 1173.99 638.48 1180.35 636.08 1186.71 633.77 C 1200.87 629.28 1214.52 623.37 1228.53 618.46 C 1238.61 614.92 1248.53 610.94 1258.73 607.74 C 1264.11 605.98 1270.14 603.63 1272.49 597.99 C 1268.88 595.37 1264.20 595.88 1260.01 595.69 C 1245.67 595.74 1231.33 595.53 1217.00 596.19 C 1200.24 596.60 1183.46 596.20 1166.71 596.70 Z" />
<path fill="#e4bf80" opacity="1.00" d=" M 1406.05 620.10 C 1413.79 615.94 1421.50 611.61 1429.88 608.86 C 1432.17 620.10 1431.27 631.62 1432.04 643.00 C 1432.45 650.99 1432.36 659.00 1432.29 667.00 C 1431.59 687.20 1430.57 707.44 1427.48 727.43 C 1424.02 752.64 1418.15 777.46 1410.72 801.78 C 1405.34 820.19 1399.16 838.44 1390.70 855.68 C 1384.40 868.56 1377.75 881.26 1370.79 893.79 C 1355.42 920.26 1336.72 944.62 1316.77 967.77 C 1308.41 977.71 1299.63 987.27 1290.67 996.68 C 1288.50 998.72 1286.28 1001.19 1283.19 1001.67 C 1280.62 1000.43 1278.59 998.39 1276.51 996.51 C 1271.53 991.78 1266.18 987.48 1261.04 982.95 C 1243.59 967.75 1226.80 951.81 1209.08 936.92 C 1201.15 929.83 1192.92 923.09 1185.06 915.93 C 1172.78 904.86 1159.85 894.52 1147.95 883.04 C 1135.94 871.67 1122.80 861.58 1110.85 850.15 C 1108.95 848.42 1107.12 846.56 1104.84 845.36 C 1099.66 846.63 1095.62 850.42 1091.19 853.18 C 1075.48 863.53 1059.29 873.14 1043.74 883.74 C 1036.39 888.79 1028.97 893.75 1021.21 898.15 C 1018.32 899.88 1015.24 901.41 1012.85 903.83 C 1011.48 905.18 1011.49 907.22 1011.32 909.01 C 1010.86 927.37 1011.87 945.72 1013.16 964.04 C 1013.58 969.26 1013.33 974.57 1014.45 979.73 C 1015.07 982.89 1017.84 984.88 1020.14 986.86 C 1031.29 995.66 1042.15 1004.81 1052.76 1014.25 C 1061.56 1021.45 1070.72 1029.04 1081.93 1032.04 C 1089.80 1034.22 1098.01 1033.17 1106.05 1033.05 C 1110.69 1032.75 1114.71 1036.22 1116.67 1040.17 C 1116.26 1043.28 1113.20 1045.10 1111.09 1047.11 C 1099.16 1056.48 1087.17 1065.78 1075.50 1075.48 C 1068.94 1080.92 1062.63 1086.64 1055.96 1091.95 C 1034.56 1108.42 1014.52 1126.56 993.55 1143.57 C 981.37 1154.09 968.89 1164.25 956.42 1174.43 C 943.84 1185.56 930.84 1196.20 917.87 1206.87 C 913.43 1210.44 909.29 1214.45 904.38 1217.40 C 902.72 1218.28 900.59 1219.45 898.77 1218.32 C 896.46 1216.86 894.85 1214.35 894.37 1211.68 C 893.89 1208.85 895.25 1206.10 897.02 1204.00 C 899.47 1201.11 902.55 1198.86 905.46 1196.47 C 917.78 1186.49 929.52 1175.82 941.83 1165.82 C 951.43 1157.75 961.36 1150.08 970.73 1141.73 C 976.39 1136.69 982.34 1132.00 988.21 1127.20 C 999.58 1117.58 1010.97 1107.99 1022.23 1098.23 C 1029.08 1092.39 1036.22 1086.91 1042.98 1080.96 C 1055.00 1070.29 1068.20 1061.03 1080.12 1050.23 C 1067.80 1046.28 1056.72 1039.37 1046.74 1031.26 C 1032.56 1020.56 1019.97 1007.99 1006.27 996.73 C 1003.23 994.06 999.60 991.32 998.91 987.07 C 998.11 982.49 998.17 977.81 997.68 973.20 C 995.87 954.22 994.90 935.15 994.83 916.08 C 988.79 919.91 983.03 924.13 977.06 928.06 C 964.88 935.83 952.61 943.47 940.79 951.80 C 925.62 962.01 910.45 972.20 895.06 982.08 C 879.45 992.80 863.69 1003.29 848.16 1014.13 C 844.37 1016.94 839.73 1018.91 836.84 1022.76 C 835.68 1026.37 835.90 1030.25 835.79 1034.00 C 835.67 1109.67 835.56 1185.33 835.67 1261.00 C 835.75 1266.28 835.24 1271.63 836.16 1276.87 C 836.74 1280.06 839.32 1282.30 841.57 1284.42 C 852.69 1294.32 864.32 1303.64 875.41 1313.60 C 881.19 1318.84 887.33 1323.67 893.25 1328.76 C 895.60 1330.68 897.96 1332.77 900.89 1333.80 C 905.23 1330.94 908.50 1326.78 912.53 1323.52 C 919.29 1317.92 925.98 1312.22 931.91 1305.73 C 930.64 1299.47 928.69 1293.10 929.69 1286.66 C 931.27 1277.25 939.10 1269.73 948.00 1266.97 C 954.72 1265.03 960.96 1269.29 967.38 1270.50 C 971.23 1271.36 974.40 1268.34 977.27 1266.26 C 993.18 1252.90 1008.22 1238.54 1023.89 1224.89 C 1036.54 1214.59 1048.15 1203.11 1060.64 1192.64 C 1071.46 1183.49 1081.51 1173.47 1092.33 1164.32 C 1103.24 1155.28 1113.38 1145.37 1124.07 1136.07 C 1141.19 1121.20 1157.99 1105.97 1175.24 1091.24 C 1189.82 1078.49 1204.10 1065.40 1218.88 1052.88 C 1221.49 1050.60 1223.68 1047.90 1225.82 1045.19 C 1213.59 1035.80 1201.23 1026.54 1189.69 1016.30 C 1179.07 1007.24 1167.99 998.74 1157.54 989.47 C 1153.50 986.15 1149.84 982.35 1145.44 979.53 C 1144.18 978.80 1142.33 977.70 1141.10 979.06 C 1137.71 982.36 1135.29 986.57 1131.62 989.63 C 1122.45 997.39 1111.03 1002.89 1098.93 1003.66 C 1090.68 1004.10 1082.17 1003.72 1074.42 1000.59 C 1061.25 995.20 1049.90 985.04 1043.91 972.04 C 1036.32 956.57 1037.04 937.77 1044.38 922.35 C 1047.98 915.07 1053.53 908.89 1059.90 903.91 C 1067.73 897.79 1077.49 894.61 1087.26 893.34 C 1101.64 891.38 1116.92 894.65 1128.67 903.34 C 1138.30 910.48 1144.91 921.10 1148.60 932.39 C 1150.74 938.83 1151.22 945.75 1150.39 952.47 C 1150.10 955.50 1149.33 958.54 1149.66 961.60 C 1150.96 964.12 1153.52 965.63 1155.71 967.32 C 1167.00 975.19 1177.27 984.38 1187.90 993.09 C 1194.78 998.90 1202.05 1004.24 1208.84 1010.16 C 1219.73 1019.66 1231.43 1028.18 1242.35 1037.66 C 1244.78 1039.91 1247.44 1042.24 1248.62 1045.45 C 1249.49 1048.22 1247.01 1050.48 1245.40 1052.41 C 1239.11 1058.80 1232.26 1064.64 1225.30 1070.29 C 1215.81 1078.11 1206.82 1086.52 1197.30 1094.30 C 1184.35 1104.96 1172.40 1116.77 1159.64 1127.65 C 1149.70 1136.01 1140.01 1144.66 1130.52 1153.52 C 1110.75 1170.74 1091.35 1188.38 1071.40 1205.39 C 1060.52 1215.19 1049.43 1224.75 1038.56 1234.55 C 1027.01 1244.30 1016.04 1254.72 1004.57 1264.58 C 996.68 1270.98 989.19 1277.84 981.84 1284.86 C 978.72 1287.58 975.37 1290.87 970.98 1291.06 C 964.42 1290.44 959.35 1285.28 952.86 1284.38 C 949.72 1283.92 945.85 1285.84 945.51 1289.26 C 944.83 1296.57 948.05 1303.60 947.66 1310.90 C 947.59 1313.16 945.85 1314.85 944.43 1316.43 C 933.87 1326.90 922.14 1336.11 911.61 1346.61 C 908.06 1349.88 904.79 1353.91 900.11 1355.54 C 897.46 1354.52 895.28 1352.64 893.11 1350.90 C 886.41 1345.28 880.22 1339.10 873.53 1333.47 C 861.10 1322.86 848.30 1312.68 836.08 1301.82 C 835.27 1312.54 836.47 1323.27 836.14 1334.01 C 835.69 1347.00 835.71 1360.00 835.88 1373.00 C 836.41 1383.65 836.05 1394.32 836.24 1404.99 C 836.21 1409.42 836.41 1413.98 835.13 1418.29 C 834.07 1421.64 830.15 1422.75 826.99 1422.72 C 824.47 1422.67 821.40 1422.40 819.86 1420.15 C 818.34 1416.89 818.50 1413.19 818.38 1409.69 C 818.45 1375.61 818.33 1341.52 818.49 1307.43 C 818.94 1282.63 818.13 1257.84 818.57 1233.04 C 818.67 1179.35 818.56 1125.65 818.58 1071.96 C 818.29 1054.28 818.43 1036.60 818.57 1018.92 C 818.67 1017.10 818.71 1015.23 819.46 1013.55 C 820.98 1011.34 823.36 1009.97 825.53 1008.48 C 833.64 1003.37 841.19 997.42 849.31 992.30 C 861.53 984.64 873.14 976.05 885.32 968.31 C 899.31 959.38 912.92 949.88 926.84 940.84 C 940.95 932.12 954.51 922.57 968.23 913.27 C 977.64 907.37 986.82 901.09 996.28 895.26 C 1004.20 890.28 1011.65 884.61 1019.39 879.37 C 1027.77 873.69 1036.22 868.11 1044.86 862.84 C 1063.76 851.09 1081.78 837.94 1101.28 827.17 C 1103.15 826.32 1105.24 825.03 1107.36 825.75 C 1110.74 827.02 1113.44 829.53 1116.15 831.84 C 1121.95 837.05 1128.03 841.95 1133.80 847.20 C 1141.85 854.47 1149.67 862.02 1158.03 868.95 C 1168.92 878.04 1179.21 887.81 1190.00 897.00 C 1199.70 905.28 1209.00 914.00 1218.55 922.44 C 1233.40 934.89 1247.37 948.34 1262.26 960.74 C 1266.57 964.41 1270.75 968.25 1274.86 972.15 C 1277.11 974.23 1279.36 976.43 1282.13 977.82 C 1284.25 976.85 1285.96 975.21 1287.58 973.57 C 1303.50 956.67 1318.39 938.77 1331.90 919.88 C 1340.47 907.40 1349.04 894.89 1356.97 881.98 C 1363.28 871.27 1368.80 860.11 1373.74 848.70 C 1380.20 834.48 1386.10 820.00 1391.21 805.24 C 1402.41 771.09 1409.10 735.56 1412.60 699.82 C 1414.17 678.86 1414.91 657.81 1414.07 636.80 C 1408.19 639.15 1402.58 642.07 1396.96 644.94 C 1385.89 650.34 1375.00 656.16 1364.50 662.58 C 1361.37 664.17 1361.24 667.87 1361.24 670.94 C 1361.27 684.29 1360.16 697.64 1360.95 710.99 C 1361.21 715.85 1361.68 720.82 1360.55 725.62 C 1359.92 728.21 1358.65 730.90 1356.25 732.27 C 1353.69 733.47 1350.77 733.36 1348.03 733.44 C 1328.69 733.18 1309.34 733.43 1290.00 733.19 C 1279.01 732.63 1268.00 732.70 1257.00 732.84 C 1251.29 732.86 1245.30 734.16 1239.81 732.14 C 1235.31 729.34 1233.82 722.41 1237.06 718.13 C 1239.01 715.73 1242.38 715.59 1245.24 715.41 C 1273.49 715.28 1301.74 715.34 1330.00 715.38 C 1334.32 715.37 1338.64 715.18 1342.97 714.88 C 1343.98 696.27 1342.82 677.60 1343.97 659.00 C 1343.93 654.65 1347.56 651.89 1351.01 649.99 C 1369.22 639.77 1387.84 630.31 1406.05 620.10 M 1087.40 909.57 C 1069.89 912.17 1055.31 928.22 1054.62 945.95 C 1054.30 952.34 1055.26 958.95 1058.40 964.61 C 1062.32 971.71 1068.25 977.63 1075.12 981.90 C 1083.73 987.25 1094.55 988.92 1104.36 986.33 C 1113.41 984.09 1121.25 978.20 1126.87 970.87 C 1137.80 957.41 1137.21 936.27 1125.52 923.47 C 1119.46 916.68 1111.47 911.07 1102.32 909.67 C 1097.38 908.98 1092.34 908.98 1087.40 909.57 Z" />
<path fill="#e4bf80" opacity="1.00" d=" M 179.24 610.86 C 187.15 613.45 194.52 617.38 201.97 621.03 C 219.65 630.31 237.18 639.84 254.81 649.20 C 258.63 651.25 262.27 653.61 265.86 656.04 C 266.58 668.36 265.45 680.68 265.89 693.00 C 266.17 700.58 266.11 708.17 266.81 715.73 C 274.87 715.77 282.93 716.43 290.99 715.93 C 313.66 715.38 336.34 715.95 359.00 715.32 C 362.48 715.37 366.13 715.11 369.42 716.47 C 372.14 717.77 372.81 721.15 372.72 723.90 C 372.55 726.88 371.60 730.24 369.01 732.00 C 366.50 733.05 363.71 733.03 361.05 733.17 C 327.68 733.24 294.31 733.46 260.94 733.41 C 257.87 733.17 254.32 733.31 251.85 731.18 C 249.80 728.64 249.81 725.15 249.54 722.07 C 249.10 703.07 249.71 684.07 249.23 665.08 C 237.11 658.82 225.27 652.02 213.06 645.94 C 207.17 642.87 201.27 639.77 194.98 637.58 C 193.88 648.36 194.59 659.19 194.69 670.00 C 195.28 682.02 195.55 694.06 196.88 706.03 C 199.72 740.61 206.88 774.86 218.50 807.56 C 225.13 826.64 232.22 845.63 241.36 863.67 C 246.82 874.02 253.01 883.96 258.95 894.04 C 267.51 908.76 277.93 922.27 288.24 935.77 C 295.65 944.69 302.62 953.98 310.45 962.54 C 315.88 968.18 321.02 974.09 326.70 979.48 C 353.74 954.90 381.57 931.21 408.46 906.47 C 424.67 892.35 440.82 878.16 456.92 863.92 C 470.18 852.89 482.24 840.49 495.58 829.55 C 497.28 828.26 498.99 826.82 501.09 826.24 C 504.15 826.43 506.89 828.04 509.58 829.40 C 519.56 834.90 529.03 841.26 538.70 847.27 C 548.14 853.11 557.09 859.73 566.67 865.34 C 578.26 872.21 589.41 879.79 600.43 887.52 C 615.39 897.29 630.71 906.52 645.63 916.35 C 656.81 923.84 667.83 931.56 679.22 938.75 C 703.29 954.63 727.05 970.98 751.06 986.95 C 761.33 993.69 771.92 999.96 781.99 1007.01 C 784.49 1008.82 787.09 1010.60 789.05 1013.03 C 790.47 1014.81 790.45 1017.21 790.58 1019.38 C 790.64 1024.92 790.34 1030.46 790.40 1036.01 C 790.41 1108.67 790.40 1181.33 790.42 1254.00 C 790.35 1283.67 790.79 1313.33 790.66 1343.00 C 790.57 1359.67 790.64 1376.33 790.60 1393.00 C 790.52 1402.32 790.98 1411.67 790.06 1420.97 C 787.43 1421.42 784.80 1422.06 782.12 1422.03 C 779.05 1421.84 776.39 1419.56 775.28 1416.77 C 774.19 1414.00 774.23 1410.97 774.17 1408.06 C 774.66 1372.64 773.98 1337.22 774.23 1301.80 C 768.25 1305.88 762.96 1310.82 757.34 1315.35 C 750.71 1320.70 744.35 1326.36 737.74 1331.73 C 728.32 1339.17 720.42 1348.49 709.95 1354.59 C 705.03 1351.04 700.20 1347.36 695.78 1343.22 C 686.28 1334.36 676.71 1325.55 666.56 1317.43 C 664.26 1315.43 661.71 1313.47 660.39 1310.66 C 660.64 1305.38 663.85 1300.79 664.53 1295.59 C 664.99 1291.85 665.30 1287.36 662.52 1284.42 C 661.29 1283.04 659.29 1283.33 657.73 1283.77 C 651.23 1285.71 645.95 1290.43 639.43 1292.28 C 637.32 1292.87 635.51 1291.22 633.86 1290.21 C 627.19 1285.26 621.30 1279.39 615.13 1273.86 C 610.24 1269.39 605.12 1265.20 600.03 1260.97 C 587.29 1250.42 575.22 1239.10 562.74 1228.25 C 552.50 1219.15 541.96 1210.40 531.86 1201.14 C 521.05 1191.27 509.67 1182.04 498.91 1172.10 C 486.07 1160.23 472.45 1149.25 459.49 1137.52 C 450.51 1129.47 440.99 1122.05 432.18 1113.81 C 421.30 1103.65 409.66 1094.36 398.68 1084.31 C 387.91 1074.38 376.39 1065.31 365.64 1055.36 C 363.14 1052.91 360.36 1050.42 359.25 1047.00 C 360.48 1043.64 363.34 1041.26 365.92 1038.93 C 372.41 1033.40 379.19 1028.21 385.65 1022.65 C 397.68 1012.28 410.10 1002.39 422.66 992.68 C 433.38 984.00 443.87 974.97 455.46 967.44 C 456.94 966.33 458.61 965.26 459.50 963.58 C 460.04 959.72 459.12 955.85 458.87 952.01 C 457.94 943.19 459.09 934.05 463.05 926.05 C 468.96 913.77 478.59 902.58 491.55 897.54 C 504.21 892.70 518.30 891.76 531.56 894.47 C 544.86 897.19 556.17 906.62 562.60 918.40 C 567.41 927.12 570.85 936.90 570.69 946.96 C 570.48 962.98 563.72 978.97 551.69 989.69 C 542.18 998.78 529.03 1003.52 515.97 1003.68 C 508.03 1003.85 499.89 1002.82 492.64 999.41 C 485.88 996.22 479.64 991.91 474.27 986.72 C 471.97 984.62 469.80 982.27 467.01 980.82 C 464.36 981.64 462.04 983.23 459.76 984.77 C 445.78 994.61 432.06 1004.89 419.34 1016.33 C 411.77 1023.14 403.51 1029.13 395.94 1035.94 C 391.58 1039.90 386.52 1043.05 382.42 1047.29 C 383.95 1049.78 386.21 1051.70 388.43 1053.57 C 396.99 1060.29 405.05 1067.62 413.32 1074.69 C 423.95 1083.70 434.00 1093.39 444.87 1102.13 C 458.97 1114.35 473.15 1126.50 487.12 1138.87 C 499.54 1150.50 512.84 1161.13 525.34 1172.67 C 536.59 1183.11 548.56 1192.75 559.83 1203.18 C 566.58 1209.45 573.57 1215.45 580.59 1221.42 C 593.00 1231.97 605.06 1242.95 617.35 1253.66 C 623.22 1258.77 628.67 1264.35 634.65 1269.35 C 636.69 1270.95 638.73 1272.69 641.21 1273.59 C 647.05 1272.35 651.51 1267.57 657.47 1266.55 C 662.98 1265.35 668.35 1268.11 672.54 1271.47 C 676.02 1274.33 679.64 1277.75 680.50 1282.39 C 681.73 1289.34 679.70 1296.24 678.97 1303.12 C 678.49 1306.08 681.19 1308.10 683.05 1309.96 C 690.42 1316.25 697.75 1322.60 705.10 1328.92 C 706.88 1330.37 708.71 1331.91 710.94 1332.66 C 713.61 1331.66 715.80 1329.74 717.97 1327.95 C 725.59 1321.25 733.23 1314.58 740.59 1307.59 C 747.45 1301.08 754.96 1295.32 762.07 1289.08 C 765.42 1286.11 769.15 1283.55 772.19 1280.24 C 773.81 1278.61 774.12 1276.25 774.23 1274.08 C 774.55 1259.39 773.63 1244.70 773.72 1230.00 C 773.58 1172.67 773.66 1115.33 773.63 1058.00 C 773.63 1048.99 773.64 1039.98 773.85 1030.97 C 773.82 1028.18 773.99 1025.33 773.30 1022.61 C 771.23 1019.95 768.06 1018.51 765.36 1016.61 C 744.58 1002.72 723.79 988.86 703.05 974.92 C 691.05 966.92 678.71 959.42 666.97 951.03 C 656.23 943.32 645.11 936.17 634.00 928.99 C 627.62 924.92 621.59 920.29 614.92 916.69 C 614.35 927.44 614.73 938.22 614.29 948.97 C 613.77 959.98 613.40 971.01 612.11 981.96 C 611.61 985.36 611.13 989.08 608.71 991.74 C 605.85 994.91 602.26 997.29 599.00 1000.02 C 582.86 1013.22 567.85 1027.90 550.31 1039.30 C 542.89 1044.15 534.58 1047.32 526.68 1051.26 C 532.93 1056.46 539.95 1060.62 546.31 1065.69 C 556.17 1073.47 565.86 1081.45 575.53 1089.47 C 581.92 1094.74 588.44 1099.86 594.69 1105.31 C 602.92 1112.46 611.64 1119.01 619.97 1126.04 C 627.92 1132.75 635.94 1139.39 643.90 1146.10 C 655.10 1155.58 666.72 1164.56 677.66 1174.34 C 686.81 1182.56 696.13 1190.61 705.83 1198.18 C 708.41 1200.24 711.06 1202.30 713.09 1204.95 C 715.61 1208.15 715.41 1213.49 712.07 1216.07 C 710.46 1217.28 708.39 1218.75 706.30 1217.92 C 702.11 1216.45 698.91 1213.22 695.62 1210.38 C 684.41 1200.16 672.16 1191.19 660.55 1181.45 C 644.17 1167.47 627.15 1154.26 610.99 1140.03 C 600.19 1130.78 588.87 1122.18 578.07 1112.94 C 565.71 1102.59 552.90 1092.80 540.51 1082.48 C 529.02 1072.22 516.84 1062.77 504.70 1053.30 C 500.64 1049.95 496.14 1046.70 493.76 1041.88 C 494.43 1038.32 497.76 1035.79 501.26 1035.43 C 506.73 1034.76 512.28 1035.71 517.75 1034.85 C 528.14 1033.29 537.90 1028.57 546.15 1022.16 C 551.39 1018.09 556.72 1014.12 561.68 1009.70 C 571.01 1001.33 581.32 994.06 590.18 985.16 C 594.11 981.34 595.15 975.73 595.52 970.49 C 596.51 957.32 597.39 944.12 597.58 930.92 C 597.69 922.07 598.50 913.21 597.78 904.37 C 585.64 896.83 573.44 889.38 561.52 881.50 C 552.56 875.83 543.94 869.62 534.80 864.22 C 526.87 859.53 518.80 855.03 511.17 849.84 C 508.55 848.16 506.00 846.22 502.98 845.34 C 500.58 846.27 498.70 848.11 496.81 849.79 C 488.42 857.76 479.85 865.54 471.03 873.05 C 464.42 878.74 458.45 885.13 451.93 890.93 C 443.63 898.31 435.13 905.45 426.99 913.00 C 422.48 917.15 418.11 921.45 413.46 925.44 C 395.23 940.48 377.80 956.46 360.03 972.04 C 350.70 980.03 341.57 988.26 332.35 996.37 C 330.13 998.13 327.92 1000.28 325.04 1000.82 C 322.62 1000.46 320.87 998.40 319.06 996.93 C 307.42 985.83 297.60 973.04 287.06 960.95 C 279.04 951.27 270.90 941.67 263.52 931.49 C 253.41 917.37 243.68 902.95 235.21 887.79 C 226.96 872.92 220.09 857.35 213.15 841.84 C 200.27 812.84 192.65 781.85 186.34 750.85 C 184.20 738.71 181.78 726.60 180.66 714.31 C 177.02 690.08 177.16 665.52 177.44 641.09 C 177.66 631.00 177.60 620.85 179.24 610.86 M 507.36 909.42 C 497.08 911.01 487.84 917.59 482.39 926.38 C 477.38 934.36 474.46 943.95 475.63 953.41 C 476.83 962.13 481.57 970.09 487.88 976.11 C 493.29 981.19 499.87 985.34 507.24 986.73 C 519.96 989.05 533.67 984.93 543.02 976.02 C 552.91 966.20 556.11 951.10 553.17 937.74 C 550.35 925.74 540.89 915.98 529.64 911.39 C 522.55 908.83 514.79 908.53 507.36 909.42 Z" />
<path fill="#e4bf80" opacity="1.00" d=" M 1187.76 671.83 C 1189.77 668.56 1191.93 664.51 1196.05 663.70 C 1198.31 663.65 1200.54 664.07 1202.79 664.39 C 1198.99 673.34 1194.50 682.00 1191.19 691.16 C 1183.71 710.86 1179.95 732.00 1180.33 753.07 C 1180.19 756.12 1180.23 759.65 1177.90 761.97 C 1175.68 764.30 1172.24 764.41 1169.30 765.11 C 1167.34 753.53 1168.81 741.76 1170.20 730.21 C 1173.12 710.07 1177.54 689.65 1187.76 671.83 Z" />
<path fill="#e4bf80" opacity="1.00" d=" M 408.63 665.78 C 412.39 666.46 416.65 666.67 419.60 669.42 C 423.37 673.00 425.41 677.92 427.44 682.61 C 433.89 698.42 437.79 715.20 439.96 732.12 C 441.29 743.47 442.38 755.20 439.18 766.36 C 435.86 764.71 432.03 763.43 429.75 760.35 C 428.98 757.30 429.26 754.12 429.21 751.01 C 429.37 740.82 427.90 730.71 426.39 720.66 C 424.53 708.25 421.16 696.08 416.58 684.41 C 414.15 678.11 410.82 672.18 408.63 665.78 Z" />
<path fill="#e4bf80" opacity="1.00" d=" M 458.70 693.84 C 471.74 699.67 483.37 708.07 495.58 715.40 C 506.44 721.85 516.95 728.88 527.99 735.04 C 530.02 736.27 532.27 737.75 532.84 740.25 C 533.96 744.29 533.82 748.54 533.88 752.71 C 526.84 750.02 521.12 745.03 514.63 741.36 C 505.62 736.09 496.66 730.72 487.82 725.17 C 479.70 719.99 471.88 714.37 463.65 709.37 C 461.08 707.67 458.23 706.10 456.46 703.50 C 455.87 700.14 457.70 696.95 458.70 693.84 Z" />
<path fill="#e4bf80" opacity="1.00" d=" M 1138.04 700.06 C 1141.68 697.73 1145.47 695.64 1149.35 693.74 C 1150.07 697.27 1151.11 700.90 1150.49 704.54 C 1149.45 707.04 1146.82 708.29 1144.71 709.75 C 1137.04 714.27 1129.90 719.62 1122.38 724.36 C 1109.72 732.34 1097.43 740.88 1084.73 748.79 C 1082.11 750.31 1079.24 751.28 1076.40 752.26 C 1076.03 748.96 1075.17 745.55 1075.99 742.26 C 1077.38 739.08 1080.50 737.18 1083.20 735.22 C 1090.43 730.43 1097.86 725.94 1104.98 720.98 C 1115.66 713.48 1127.03 707.06 1138.04 700.06 Z" />
<path fill="#e4bf80" opacity="1.00" d=" M 458.20 726.77 C 466.25 729.90 473.37 734.86 480.77 739.26 C 497.74 749.63 514.02 761.17 531.62 770.47 C 533.22 771.44 535.01 772.55 535.52 774.50 C 536.74 778.56 536.73 782.85 536.98 787.05 C 528.20 782.75 520.20 777.08 511.71 772.26 C 495.74 763.07 480.42 752.81 464.57 743.42 C 462.37 742.01 459.98 740.68 458.47 738.49 C 457.16 734.72 458.01 730.64 458.20 726.77 Z" />
<path fill="#e4bf80" opacity="1.00" d=" M 1129.68 737.68 C 1136.00 733.55 1142.50 729.65 1149.46 726.68 C 1150.58 730.83 1150.95 735.14 1150.60 739.43 C 1143.27 743.28 1136.53 748.09 1129.58 752.55 C 1114.40 762.02 1098.90 771.00 1084.23 781.26 C 1080.68 783.72 1076.78 785.60 1072.83 787.30 C 1072.49 783.79 1071.64 780.14 1072.68 776.69 C 1074.24 773.97 1077.07 772.33 1079.55 770.55 C 1096.13 759.40 1112.74 748.27 1129.68 737.68 Z" />
<path fill="#e4bf80" opacity="1.00" d=" M 546.90 738.98 C 550.33 740.43 553.95 741.72 556.89 744.08 C 559.17 745.98 559.59 749.12 560.20 751.85 C 563.59 772.63 566.92 793.43 571.01 814.09 C 572.88 822.73 575.26 831.31 575.87 840.18 C 572.99 839.85 569.95 839.96 567.25 838.75 C 564.26 837.21 562.93 833.86 562.27 830.75 C 559.14 815.95 556.76 801.01 553.90 786.15 C 551.57 770.43 548.63 754.79 546.90 738.98 Z" />
<path fill="#e4bf80" opacity="1.00" d=" M 1053.06 743.98 C 1056.04 741.55 1059.72 740.26 1063.23 738.83 C 1063.16 744.44 1062.62 750.05 1061.60 755.57 C 1057.58 780.41 1052.24 805.01 1047.80 829.78 C 1047.11 832.85 1046.62 836.17 1044.67 838.75 C 1042.30 841.22 1038.32 840.82 1035.45 839.56 C 1033.75 836.47 1034.94 832.85 1035.49 829.63 C 1040.52 807.68 1044.75 785.55 1048.27 763.30 C 1049.01 758.70 1049.47 754.05 1050.46 749.49 C 1050.95 747.52 1051.41 745.33 1053.06 743.98 Z" />
<path fill="#e4bf80" opacity="1.00" d=" M 458.57 760.59 C 466.55 763.73 473.44 768.92 480.81 773.21 C 497.34 782.91 513.24 793.68 530.00 803.00 C 533.69 805.17 538.06 806.71 540.69 810.27 C 542.76 814.23 541.95 818.92 541.96 823.22 C 538.30 821.61 534.73 819.81 531.36 817.67 C 522.94 812.33 514.34 807.27 505.73 802.24 C 491.09 793.66 477.26 783.71 462.16 775.93 C 460.69 775.08 459.17 774.26 457.97 773.05 C 456.96 768.95 458.19 764.70 458.57 760.59 Z" />
<path fill="#e4bf80" opacity="1.00" d=" M 1131.46 771.47 C 1137.35 767.76 1143.41 764.27 1149.99 761.91 C 1150.37 765.40 1151.12 768.96 1150.48 772.47 C 1149.61 774.50 1147.52 775.62 1145.80 776.83 C 1135.36 782.95 1125.24 789.60 1114.86 795.84 C 1103.16 803.21 1090.70 809.37 1079.40 817.38 C 1076.00 819.80 1072.22 821.63 1068.36 823.19 C 1067.99 819.59 1067.08 815.85 1068.11 812.30 C 1069.46 809.35 1072.52 807.78 1075.12 806.09 C 1094.13 794.92 1112.50 782.73 1131.46 771.47 Z" />
<path fill="#e4bf80" opacity="1.00" d=" M 508.38 924.45 C 516.58 923.26 525.90 924.93 531.67 931.32 C 538.12 938.01 539.37 948.53 536.02 957.00 C 533.03 964.28 526.49 970.20 518.70 971.81 C 511.47 973.51 503.12 972.71 497.40 967.59 C 489.73 961.10 487.54 949.78 490.38 940.42 C 493.15 932.58 500.08 925.94 508.38 924.45 M 510.49 940.32 C 508.37 941.21 506.81 943.14 506.11 945.32 C 504.39 949.91 507.51 955.66 512.29 956.74 C 515.58 957.27 519.50 956.14 521.22 953.10 C 523.19 949.65 522.16 945.21 519.84 942.22 C 517.67 939.48 513.57 938.94 510.49 940.32 Z" />
<path fill="#e4bf80" opacity="1.00" d=" M 1094.42 924.44 C 1100.02 923.88 1105.89 925.14 1110.50 928.48 C 1117.86 933.62 1121.25 943.24 1120.15 951.97 C 1118.35 962.25 1108.99 970.68 1098.60 971.55 C 1091.93 972.20 1084.56 971.22 1079.38 966.61 C 1069.86 958.11 1068.95 941.97 1077.49 932.46 C 1081.89 927.85 1088.12 925.13 1094.42 924.44 M 1093.42 940.18 C 1090.60 941.25 1087.97 943.35 1086.97 946.28 C 1085.67 950.19 1088.00 954.85 1091.92 956.16 C 1095.81 957.47 1100.67 956.51 1103.34 953.25 C 1105.16 950.44 1104.33 946.75 1103.25 943.82 C 1101.78 940.08 1096.94 938.77 1093.42 940.18 Z" />
<path fill="#e4bf80" opacity="1.00" d=" M 1516.98 1596.03 C 1522.88 1594.71 1528.97 1594.61 1535.00 1594.58 C 1540.41 1594.63 1545.87 1594.74 1551.18 1595.87 C 1555.07 1596.66 1558.63 1598.46 1562.27 1600.00 L 1505.78 1600.00 C 1509.46 1598.56 1513.09 1596.87 1516.98 1596.03 Z" />
</g>
</svg>
